<svg xmlns="http://www.w3.org/2000/svg" viewBox="0 0 100 100" width="100" height="100">
  <!-- Fondo del piano -->
  <rect x="10" y="20" width="80" height="60" rx="5" ry="5" fill="#333" />
  
  <!-- Teclas blancas -->
  <rect x="12" y="25" width="10" height="50" fill="white" />
  <rect x="24" y="25" width="10" height="50" fill="white" />
  <rect x="36" y="25" width="10" height="50" fill="white" />
  <rect x="48" y="25" width="10" height="50" fill="white" />
  <rect x="60" y="25" width="10" height="50" fill="white" />
  <rect x="72" y="25" width="10" height="50" fill="white" />
  <rect x="84" y="25" width="10" height="50" fill="white" />
  
  <!-- Teclas negras -->
  <rect x="18" y="25" width="6" height="30" fill="#222" />
  <rect x="30" y="25" width="6" height="30" fill="#222" />
  <rect x="54" y="25" width="6" height="30" fill="#222" />
  <rect x="66" y="25" width="6" height="30" fill="#222" />
  <rect x="78" y="25" width="6" height="30" fill="#222" />
  
  <!-- Nota musical -->
  <g transform="translate(50, 15) scale(0.2)">
    <path d="M25,1c13.8,0,24.9,11.3,25,25c0,5.5-1.6,10.7-4.7,15.2c-3.3,4.7-8.1,8.3-13.5,10.1c-1,0.4-2.2-0.1-2.6-1.1
      c-0.3-1,0.1-2.2,1.1-2.6c9.3-3.1,15.5-11.9,15.5-21.6C45.8,13.9,36.9,5,25.9,5c-11,0-20,8.9-20,20c0,11,9,20,20,20h10
      c1.1,0,2,0.9,2,2c0,1.1-0.9,2-2,2h-10C11.2,48.9,0.1,37.7,0,24.9C0,11.6,11.2,1,25,1z" fill="#4a69bd"/>
    <path d="M65,31c6.1,0,11,4.9,11,11s-4.9,11-11,11c-6.1,0-11-4.9-11-11S58.9,31,65,31z M65,35c-3.9,0-7,3.1-7,7s3.1,7,7,7
      c3.9,0,7-3.1,7-7S68.9,35,65,35z" fill="#4a69bd"/>
    <path d="M65,16c1.1,0,2,0.9,2,2v24c0,1.1-0.9,2-2,2s-2-0.9-2-2V18C63,16.9,63.9,16,65,16z" fill="#4a69bd"/>
  </g>
</svg>